<svg xmlns="http://www.w3.org/2000/svg" viewBox="0 0 312.86 65.78"><defs><style>.cls-1{fill:#fff;}.cls-2{fill:#fc007e;}.cls-3{fill:#ffd2f3;}</style></defs><g id="Layer_2" data-name="Layer 2"><g id="Layer_1-2" data-name="Layer 1"><path class="cls-1" d="M75.79,39.32V27h4.9V48.39H76.16V45.63A5.78,5.78,0,0,1,73.75,48a8.31,8.31,0,0,1-4.1.93,7.38,7.38,0,0,1-5.83-2.29,8.81,8.81,0,0,1-2-6.12V27h4.91V39.82q0,4.86,4.16,4.86a4.79,4.79,0,0,0,3.63-1.38A5.53,5.53,0,0,0,75.79,39.32Z"/><path class="cls-1" d="M101.39,30.05V27h4.53V47.49a9.85,9.85,0,0,1-2.7,7.15,10,10,0,0,1-7.52,2.78,9.92,9.92,0,0,1-6.91-2.27A8.51,8.51,0,0,1,85.89,50h4.9q.92,3.26,5,3.26a5.2,5.2,0,0,0,3.85-1.39A5,5,0,0,0,101,48.15V44.81c-1.43,2.2-3.69,3.29-6.76,3.29A9,9,0,0,1,87.1,45a11.29,11.29,0,0,1-2.7-7.68,11.32,11.32,0,0,1,2.7-7.69,9,9,0,0,1,7.16-3.11C97.53,26.51,99.9,27.69,101.39,30.05Zm-.17,7.26a6.65,6.65,0,0,0-1.65-4.66,6,6,0,0,0-8.61,0,6.65,6.65,0,0,0-1.65,4.66A6.66,6.66,0,0,0,91,41.94a6,6,0,0,0,8.61,0A6.66,6.66,0,0,0,101.22,37.31Z"/><path class="cls-2" d="M128.17,33.5a7,7,0,0,0,2.27-2.11,7.74,7.74,0,0,0,1.32-4.47,7.81,7.81,0,0,0-2.6-6.16c-1.7-1.49-4.26-2.25-7.62-2.25H110.08V49h11.75c3.31,0,5.93-.73,7.76-2.19a7.74,7.74,0,0,0,2.83-6.42,7.48,7.48,0,0,0-1.53-4.71A7.58,7.58,0,0,0,128.17,33.5ZM121.91,45h-7.58V35.58H122a7.81,7.81,0,0,1,4.66,1.21,4,4,0,0,1,1.56,3.48C128.17,42.29,127.52,45,121.91,45Zm-.25-13.44h-7.33v-9h7.33c5.25,0,5.85,2.56,5.85,4.49S126.91,31.53,121.66,31.53Z"/><path class="cls-2" d="M146.19,26.3A10.57,10.57,0,0,0,138,29.74a11.79,11.79,0,0,0-3.11,8.18A11.75,11.75,0,0,0,138,46.07a11.52,11.52,0,0,0,16.42,0,12.27,12.27,0,0,0,0-16.33A10.63,10.63,0,0,0,146.19,26.3Zm0,19.33a6.51,6.51,0,0,1-5.11-2.17,8,8,0,0,1-2-5.54,8.06,8.06,0,0,1,2-5.58,7.17,7.17,0,0,1,10.26,0,8,8,0,0,1,2,5.58,8,8,0,0,1-2,5.54A6.53,6.53,0,0,1,146.19,45.63Z"/><path class="cls-2" d="M175.37,39.82a5.82,5.82,0,0,1-1.56,4.39,5.52,5.52,0,0,1-4,1.5c-3.26,0-4.78-1.74-4.78-5.48V26.79h-4.17V40.85A8.91,8.91,0,0,0,163,47.1a8.09,8.09,0,0,0,6.27,2.41A8.6,8.6,0,0,0,174,48.3a9.79,9.79,0,0,0,1.45-1.15V49h4V26.79h-4.17Z"/><path class="cls-2" d="M195,26.3a8.45,8.45,0,0,0-4.79,1.26,9.45,9.45,0,0,0-1.51,1.22v-2h-4V49h4.17V35.9a5.35,5.35,0,0,1,5.69-5.81,4.54,4.54,0,0,1,3.67,1.38,6.07,6.07,0,0,1,1.23,4.1V49h4.17V35a8.88,8.88,0,0,0-2.25-6.28A8.26,8.26,0,0,0,195,26.3Z"/><path class="cls-2" d="M213.54,20.82h-4.16v6h-4v3.72h4V42.75c0,4.15,2.09,6.35,6.06,6.35a9.62,9.62,0,0,0,2.39-.23l.45-.13v-3.8l-2.47.28c-1.06,0-2.27-.31-2.27-2.68v-12h4.82V26.79h-4.82Z"/><path class="cls-2" d="M236.82,26.79,230,43.25l-6.67-16.46h-4.53l9.06,21.63-.82,2a7.28,7.28,0,0,1-2,3,4.71,4.71,0,0,1-3.21.74l-.69-.08v4l1.44.07c3.66,0,6.42-2.12,8.2-6.31l10.5-24.94Z"/><path class="cls-1" d="M256.1,48.39H243.81V19.13h11.83q4.83,0,7.26,2.18a7.39,7.39,0,0,1,2.43,5.77,7.06,7.06,0,0,1-1.13,4,6.83,6.83,0,0,1-3.12,2.52,6.91,6.91,0,0,1,3.47,2.49,6.77,6.77,0,0,1,1.27,4.1,7.53,7.53,0,0,1-2.51,6Q260.79,48.39,256.1,48.39Zm-.42-24.73h-7v7.63h7q4.62,0,4.62-3.8a3.55,3.55,0,0,0-1.15-2.82A5.17,5.17,0,0,0,255.68,23.66Zm.38,12.2h-7.34v8H256q4.78,0,4.79-4a3.68,3.68,0,0,0-1.24-3A5.26,5.26,0,0,0,256.06,35.86Z"/><path class="cls-1" d="M279.72,48.89a10.53,10.53,0,0,1-8-3.26,11.1,11.1,0,0,1-3.07-7.91,11.19,11.19,0,0,1,3.07-7.94,11.51,11.51,0,0,1,16.07,0,11.19,11.19,0,0,1,3.08,7.94,11.11,11.11,0,0,1-3.08,7.91A10.55,10.55,0,0,1,279.72,48.89Zm-6.19-11.17a7,7,0,0,0,1.75,4.94,6.17,6.17,0,0,0,8.91,0,7,7,0,0,0,1.75-4.94,7,7,0,0,0-1.75-5,6.17,6.17,0,0,0-8.91,0A7.09,7.09,0,0,0,273.53,37.72Z"/><path class="cls-1" d="M312.57,27l-7.95,10.52,8.24,10.87h-5.94l-5.25-7-5.26,7h-5.89l8.2-10.86-8-10.53h5.9l5,6.62,5-6.62Z"/><path class="cls-1" d="M39.88,51.82a14.06,14.06,0,0,1-12.32,14H3.28A3.28,3.28,0,0,1,0,62.5V21.14a3.82,3.82,0,0,1,3.81-3.81H25.6a14.17,14.17,0,0,1,14.28,14,14,14,0,0,1-4.5,10.25A13.9,13.9,0,0,1,39.88,51.82Z"/><path class="cls-2" d="M48,43.57a14.06,14.06,0,0,1-12.32,14H11.39a3.28,3.28,0,0,1-3.28-3.28V12.89a3.82,3.82,0,0,1,3.81-3.81H33.71A14.17,14.17,0,0,1,48,23.06a14,14,0,0,1-4.5,10.25A13.9,13.9,0,0,1,48,43.57Z"/><path class="cls-1" d="M57.07,34.49a14.06,14.06,0,0,1-12.32,14H20.47a3.28,3.28,0,0,1-3.28-3.28V3.81A3.82,3.82,0,0,1,21,0H42.79A14.17,14.17,0,0,1,57.07,14a13.89,13.89,0,0,1-4.5,10.24A13.92,13.92,0,0,1,57.07,34.49Z"/><path class="cls-3" d="M43.49,33.31A14,14,0,0,0,48,23.06a14.17,14.17,0,0,0-14.28-14H17.19V45.17a3.28,3.28,0,0,0,3.28,3.28H44.75a13.18,13.18,0,0,0,2.54-.55,13.89,13.89,0,0,0-3.8-14.59Z"/></g></g></svg>